<svg width="25" height="24" viewBox="0 0 25 24" fill="none" xmlns="http://www.w3.org/2000/svg">
<path d="M17.8492 12.5555C17.8398 10.957 18.5641 9.75234 20.0266 8.86406C19.2086 7.69219 17.9711 7.04766 16.3398 6.92344C14.7953 6.80156 13.1055 7.82344 12.4867 7.82344C11.8328 7.82344 10.3375 6.96563 9.16094 6.96563C6.73281 7.00313 4.15234 8.90156 4.15234 12.7641C4.15234 13.9055 4.36094 15.0844 4.77812 16.2984C5.33594 17.8969 7.34687 21.8133 9.44453 21.75C10.5414 21.7242 11.3172 20.9719 12.7445 20.9719C14.1297 20.9719 14.8469 21.75 16.0703 21.75C18.1867 21.7195 20.0055 18.1594 20.5352 16.5563C17.6969 15.218 17.8492 12.6375 17.8492 12.5555ZM15.3859 5.40703C16.5742 3.99609 16.4664 2.71172 16.4313 2.25C15.3813 2.31094 14.1672 2.96484 13.4758 3.76875C12.7141 4.63125 12.2664 5.69766 12.3625 6.9C13.4969 6.98672 14.5328 6.40313 15.3859 5.40703Z" fill="black"/>
</svg>
