<svg width="20" height="20" viewBox="0 0 20 20" fill="none" xmlns="http://www.w3.org/2000/svg">
<path fill-rule="evenodd" clip-rule="evenodd" d="M6.41271 11.159C5.8754 11.159 5.4389 10.7225 5.4389 10.1852C5.4389 9.64952 5.8754 9.21302 6.41271 9.21302C6.95001 9.21302 7.38652 9.64952 7.38652 10.1852C7.38652 10.7225 6.95001 11.159 6.41271 11.159ZM10.1984 11.159C9.6611 11.159 9.22459 10.7225 9.22459 10.1852C9.22459 9.64952 9.6611 9.21302 10.1984 9.21302C10.7357 9.21302 11.1722 9.64952 11.1722 10.1852C11.1722 10.7225 10.7357 11.159 10.1984 11.159ZM13.0104 10.1852C13.0104 10.7225 13.4469 11.159 13.9842 11.159C14.5215 11.159 14.958 10.7225 14.958 10.1852C14.958 9.64952 14.5215 9.21302 13.9842 9.21302C13.4469 9.21302 13.0104 9.64952 13.0104 10.1852Z" fill="url(#paint0_linear_2_9968)"/>
<path fill-rule="evenodd" clip-rule="evenodd" d="M10.0167 1.66667C5.175 1.66667 1.66666 5.62177 1.66666 10.0125C1.66666 11.4146 2.075 12.8576 2.79166 14.1763C2.925 14.3941 2.94166 14.6687 2.85 14.9282L2.29166 16.7977C2.16666 17.2484 2.55 17.5814 2.975 17.4478L4.65833 16.9479C5.11666 16.7977 5.475 16.9888 5.9 17.2484C7.11666 17.9653 8.63333 18.3333 10 18.3333C14.1333 18.3333 18.3333 15.1369 18.3333 9.98748C18.3333 5.54665 14.75 1.66667 10.0167 1.66667Z" stroke="url(#paint1_linear_2_9968)" stroke-width="1.5" stroke-linecap="round" stroke-linejoin="round"/>
<defs>
<linearGradient id="paint0_linear_2_9968" x1="14.958" y1="11.159" x2="5.34433" y2="10.3799" gradientUnits="userSpaceOnUse">
<stop stop-color="#888BF4"/>
<stop offset="1" stop-color="#5151C6"/>
</linearGradient>
<linearGradient id="paint1_linear_2_9968" x1="18.3333" y1="18.3333" x2="1.39519" y2="18.0527" gradientUnits="userSpaceOnUse">
<stop stop-color="#888BF4"/>
<stop offset="1" stop-color="#5151C6"/>
</linearGradient>
</defs>
</svg>
