<svg width="134" height="44" viewBox="0 0 134 44" fill="none" xmlns="http://www.w3.org/2000/svg">
<g clip-path="url(#clip0_130_5370)">
<path d="M17.8842 6.81641L21.7923 9.78817L19.4049 12.8456C21.0532 14.7229 21.6607 16.8651 21.6607 19.2254C21.6607 21.8894 20.6624 25.648 17.1452 27.2643C20.705 29.0559 21.5717 31.6343 21.5717 34.388C21.5717 40.3315 17.0562 44.0004 10.8497 44.0004C4.64324 44.0004 0 40.1991 0 34.388H5.25073C5.25073 37.1845 7.81225 39.0189 10.8497 39.0189C13.8872 39.0189 16.2746 37.3597 16.2746 34.388C16.2746 31.4162 13.4963 30.0608 10.8497 30.0608C4.16731 30.0608 0 25.9556 0 19.2254C0 12.4951 4.85992 8.30034 10.8536 8.30034C12.5484 8.30034 14.2818 8.51845 15.7599 9.52332L17.8842 6.81641ZM5.25073 19.2254C5.25073 22.9839 7.76969 25.2117 10.8497 25.2117C13.8872 25.2117 16.4061 22.941 16.4061 19.2254C16.4061 15.5097 13.891 13.1533 10.8536 13.1533C7.76969 13.1533 5.25073 15.4668 5.25073 19.2254Z" fill="#112211"/>
<path d="M61.4031 0V30.5433H56.1523V0H61.4031Z" fill="#112211"/>
<path d="M84.9987 19.7933C84.9987 25.9978 80.7888 31.0221 73.8433 31.0221C66.8978 31.0221 62.7305 25.9978 62.7305 19.7933C62.7305 13.6316 66.9829 8.56445 73.8007 8.56445C80.6185 8.56445 84.9987 13.6316 84.9987 19.7933ZM68.0238 19.7933C68.0238 23.0688 69.9778 26.1302 73.8394 26.1302C77.701 26.1302 79.6551 23.0727 79.6551 19.7933C79.6551 16.5606 77.3992 13.4135 73.8394 13.4135C70.0204 13.4135 68.0238 16.5606 68.0238 19.7933Z" fill="#112211"/>
<path d="M91.6194 0V11.9299C92.877 9.70204 96.3942 8.47906 98.6501 8.47906C104.899 8.47906 109.546 12.3233 109.546 19.7507C109.546 26.8277 104.814 31.0224 98.5224 31.0224C95.9183 31.0224 93.2716 30.15 91.6194 27.5716L91.2712 30.5433H86.3223V0H91.6194ZM91.9638 19.7507C91.9638 23.6378 94.8271 26.0876 98.1703 26.0876C101.556 26.0876 104.249 23.5092 104.249 19.7507C104.249 15.8637 101.556 13.4606 98.1703 13.4606C94.831 13.4567 91.9638 15.9922 91.9638 19.7507Z" fill="#112211"/>
<path d="M117.419 23.5051C118.649 25.8888 121.466 26.9053 124.976 25.62C126.81 24.9462 128.965 23.3688 129.677 21.7602L134.003 23.7544C132.684 26.7495 129.604 29.0864 126.543 30.2081C119.609 32.7476 113.929 29.9472 111.584 23.4584C109.355 17.3006 111.913 11.3415 118.44 8.9501C125.169 6.48467 130.888 9.13316 133.125 17.7524L117.419 23.5051ZM126.852 15.3532C125.576 12.8449 123.06 12.2802 120.205 13.324C117.512 14.3094 115.786 16.4321 116.003 19.326L126.852 15.3532Z" fill="#112211"/>
<path fill-rule="evenodd" clip-rule="evenodd" d="M48.2841 14.6539C46.5674 11.0489 42.9887 8.56445 38.2148 8.56445C31.397 8.56445 27.1445 13.6316 27.1445 19.7933C27.1445 23.727 28.8197 27.1863 31.8159 29.1916C31.9867 29.063 32.0895 28.9795 32.0895 28.9795C33.584 27.998 35.0419 26.9648 36.4608 25.8821C33.7877 25.0903 32.4378 22.5158 32.4378 19.7933C32.4378 16.5606 34.4383 13.4135 38.2535 13.4135C41.6133 13.4135 43.8115 16.2169 44.0479 19.2498C45.5207 17.7786 46.934 16.2455 48.2841 14.6539ZM37.7169 31.0118C41.9446 27.9955 45.8537 24.55 49.3801 20.7323C48.9765 26.4969 44.8489 31.0221 38.2574 31.0221C38.0753 31.0221 37.8951 31.0186 37.7169 31.0118Z" fill="#8DD3BB"/>
<path d="M52.5993 5.54625C47.1899 3.5443 43.3012 7.852 43.3012 7.852L46.9887 10.0097C48.3701 9.2113 48.9853 9.98637 49.1439 10.4109C49.2562 10.7108 49.1052 11.038 48.9853 11.2171L48.0876 12.3583C43.2432 18.2395 37.5475 23.3496 31.1901 27.5248C31.1901 27.5248 29.2709 29.0828 28.2494 29.1061C27.3904 29.1256 27.0073 28.3973 27.7309 27.3535L25.951 23.3106C25.951 23.3106 21.3193 26.3642 22.217 31.7313C22.5962 33.9981 24.7128 35.6105 26.9609 35.2016C28.1101 34.9951 29.5301 34.4304 31.2675 33.2736L34.4636 31.1704C40.8209 26.9873 46.5205 21.8617 51.3611 15.9727L52.46 14.6368C54.1161 12.74 54.859 11.1782 55.1105 9.94353C55.4974 8.05453 54.3869 6.20838 52.5993 5.54625Z" fill="#8DD3BB"/>
</g>
<defs>
<clipPath id="clip0_130_5370">
<rect width="134" height="44" fill="white"/>
</clipPath>
</defs>
</svg>
