<svg width="20" height="21" viewBox="0 0 20 21" fill="none" xmlns="http://www.w3.org/2000/svg">
<path fill-rule="evenodd" clip-rule="evenodd" d="M9.67661 2.1665C5.25302 2.1665 1.66699 5.67333 1.66699 9.99922C1.66699 14.3251 5.25302 17.8319 9.67661 17.8319C11.5686 17.8319 13.3073 17.1905 14.6778 16.1178L17.2812 18.657L17.3505 18.7154C17.5922 18.8903 17.9348 18.8704 18.1536 18.6559C18.3941 18.4201 18.3936 18.0381 18.1524 17.8028L15.5796 15.2934C16.8878 13.8993 17.6862 12.0405 17.6862 9.99922C17.6862 5.67333 14.1002 2.1665 9.67661 2.1665ZM9.6766 3.37295C13.4188 3.37295 16.4525 6.33963 16.4525 9.99922C16.4525 13.6588 13.4188 16.6255 9.6766 16.6255C5.93437 16.6255 2.90068 13.6588 2.90068 9.99922C2.90068 6.33963 5.93437 3.37295 9.6766 3.37295Z" fill="url(#paint0_linear_171_3350)"/>
<defs>
<linearGradient id="paint0_linear_171_3350" x1="18.3337" y1="18.8332" x2="1.39551" y2="18.5525" gradientUnits="userSpaceOnUse">
<stop stop-color="#888BF4"/>
<stop offset="1" stop-color="#5151C6"/>
</linearGradient>
</defs>
</svg>
