<svg width="25" height="24" viewBox="0 0 25 24" fill="none" xmlns="http://www.w3.org/2000/svg">
<path d="M16.5 8.75C16.09 8.75 15.75 8.41 15.75 8V4.5C15.75 3.42 15.08 2.75 14 2.75H11C9.92 2.75 9.25 3.42 9.25 4.5V8C9.25 8.41 8.91 8.75 8.5 8.75C8.09 8.75 7.75 8.41 7.75 8V4.5C7.75 2.59 9.09 1.25 11 1.25H14C15.91 1.25 17.25 2.59 17.25 4.5V8C17.25 8.41 16.91 8.75 16.5 8.75Z" fill="#B1B7C8"/>
<path d="M8.50082 17.78C8.09082 17.78 7.75082 17.44 7.75082 17.03C7.75082 16.61 8.09082 16.28 8.50082 16.28H20.2608C20.5608 16.28 20.7908 16.02 20.7608 15.72L20.0808 10.03C19.8408 8.09 19.5008 6.5 16.1008 6.5H8.90082C5.50082 6.5 5.16082 8.09 4.93082 10.03L4.03082 17.53C3.74082 19.99 4.50082 22 8.01082 22H16.9908C20.1508 22 21.0808 20.37 21.0308 18.25C21.0208 17.98 20.8008 17.78 20.5308 17.78H8.50082Z" fill="#B1B7C8"/>
</svg>
