<svg width="25" height="24" viewBox="0 0 25 24" fill="none" xmlns="http://www.w3.org/2000/svg">
<path d="M20 12.5C20 11.12 21.12 10 22.5 10V9C22.5 5 21.5 4 17.5 4H7.5C3.5 4 2.5 5 2.5 9V9.5C3.88 9.5 5 10.62 5 12C5 13.38 3.88 14.5 2.5 14.5V15C2.5 19 3.5 20 7.5 20H17.5C21.5 20 22.5 19 22.5 15C21.12 15 20 13.88 20 12.5Z" stroke="#A7AEC1" stroke-width="1.5" stroke-linecap="round" stroke-linejoin="round"/>
<path d="M10.5 4L10.5 20" stroke="#A7AEC1" stroke-width="1.5" stroke-linecap="round" stroke-linejoin="round" stroke-dasharray="5 5"/>
</svg>
