<svg width="20" height="20" viewBox="0 0 20 20" fill="none" xmlns="http://www.w3.org/2000/svg">
<path fill-rule="evenodd" clip-rule="evenodd" d="M1.68459 10.5575C1.68459 8.5748 3.2462 6.95654 5.20645 6.86569L5.38042 6.86167H6.15792C6.5031 6.86167 6.78292 7.14149 6.78292 7.48667C6.78292 7.80308 6.54779 8.06458 6.24273 8.10596L6.15792 8.11167H5.38042C4.078 8.11167 3.01314 9.13001 2.93874 10.4138L2.93459 10.5575L2.93459 14.62C2.93459 15.9217 3.95303 16.9865 5.23673 17.0608L5.38042 17.065H14.6554C15.9577 17.065 17.0227 16.0467 17.0971 14.7636L17.1013 14.62V10.5492C17.1013 9.25137 16.0866 8.18996 14.8077 8.11581L14.6646 8.11167H13.8788C13.5336 8.11167 13.2538 7.83184 13.2538 7.48667C13.2538 7.17025 13.4889 6.90876 13.7939 6.86737L13.8788 6.86167H14.6646C16.6406 6.86167 18.2538 8.41734 18.347 10.3705L18.3513 10.5492V14.62C18.3513 16.602 16.7895 18.2201 14.8294 18.311L14.6554 18.315H5.38042C3.39787 18.315 1.77947 16.7535 1.68861 14.7939L1.68459 14.62L1.68459 10.5575ZM9.56562 1.39397C9.67943 1.27472 9.83995 1.20041 10.0178 1.20041C10.1968 1.20041 10.3582 1.27563 10.4721 1.39619L12.8906 3.82463C13.1342 4.06921 13.1334 4.46494 12.8888 4.70851C12.6665 4.92995 12.3192 4.94941 12.0749 4.76736L12.0049 4.7067L10.6428 3.33994L10.6428 11.8596C10.6428 12.2048 10.363 12.4846 10.0178 12.4846C9.70141 12.4846 9.43991 12.2495 9.39852 11.9444L9.39282 11.8596V3.33861L8.03152 4.70662C7.81013 4.92901 7.46295 4.94995 7.21788 4.76895L7.14764 4.70859C6.92526 4.4872 6.90432 4.14002 7.08532 3.89494L7.14568 3.82471L9.56562 1.39397Z" fill="#242424"/>
</svg>
