<svg width="13" height="11" viewBox="0 0 13 11" fill="none" xmlns="http://www.w3.org/2000/svg">
<path d="M11.0198 1.8087H9.71372L8.99267 0.678261C8.72058 0.254348 8.24442 0 7.75465 0H4.76163C4.27186 0 3.7957 0.254348 3.5236 0.678261L2.80256 1.8087H1.49651C0.666628 1.8087 0 2.50109 0 3.36304V8.84565C0 9.70761 0.666628 10.4 1.49651 10.4H11.0198C11.8497 10.4 12.5163 9.70761 12.5163 8.84565V3.36304C12.5163 2.50109 11.8497 1.8087 11.0198 1.8087ZM6.25814 9.12826C4.3943 9.12826 2.88419 7.55978 2.88419 5.62391C2.88419 3.68804 4.3943 2.1337 6.25814 2.1337C8.12198 2.1337 9.63209 3.70217 9.63209 5.63804C9.63209 7.55978 8.12198 9.12826 6.25814 9.12826ZM10.8293 3.99891C10.8157 3.99891 10.8021 3.99891 10.7749 3.99891H10.2307C9.98581 3.98478 9.79535 3.77283 9.80895 3.51848C9.82256 3.27826 9.99942 3.09456 10.2307 3.08043H10.7749C11.0198 3.0663 11.2238 3.26413 11.2374 3.51848C11.251 3.77283 11.0742 3.98478 10.8293 3.99891Z" fill="white"/>
</svg>
